<svg width="120" height="99" viewBox="0 0 120 99" fill="none" xmlns="http://www.w3.org/2000/svg">
<path d="M116.733 21.4122C127.49 43.8008 110.81 74.3425 79.4771 89.6291C48.1441 104.916 14.0235 99.1582 3.26656 76.7696C-7.49035 54.381 9.18987 23.8393 40.5229 8.55274C71.8559 -6.73378 105.977 -0.976408 116.733 21.4122Z" fill="#81620d"/>
<path d="M24.3453 42.5455C25.4333 42.5455 26.3759 42.7317 27.173 43.104C27.9701 43.4764 28.581 44.0029 29.0057 44.6837C29.4304 45.3644 29.6428 46.1557 29.6428 47.0575C29.6428 47.9593 29.4304 48.7506 29.0057 49.4313C28.581 50.112 27.9701 50.6386 27.173 51.0109C26.3759 51.3833 25.4333 51.5695 24.3453 51.5695H20.6188V55.6364H16.997V42.5455H24.3453ZM24.1359 48.672C24.7177 48.672 25.1715 48.5295 25.4973 48.2444C25.8232 47.9593 25.9861 47.5637 25.9861 47.0575C25.9861 46.5513 25.8232 46.1557 25.4973 45.8706C25.1715 45.5855 24.7177 45.4429 24.1359 45.4429H20.6188V48.672H24.1359Z" fill="white"/>
<path d="M35.0192 50.4088L34.6527 52.704H42.9436V55.6364H30.769L31.7639 49.0909L30.769 42.5455H42.8563V45.4778H34.6527L35.0192 47.7731H42.3501V50.4088H35.0192Z" fill="white"/>
<path d="M54.7943 48.9338C55.8008 49.0968 56.5717 49.4226 57.107 49.9113C57.6481 50.4 57.9186 51.0458 57.9186 51.8488C57.9186 52.6517 57.6539 53.3615 57.1244 53.9782C56.6008 54.5891 55.8328 55.0662 54.8204 55.4095C53.8139 55.7528 52.6066 55.9244 51.1986 55.9244C49.8139 55.9244 48.6008 55.7324 47.5593 55.3484C46.5179 54.9644 45.7063 54.4175 45.1244 53.7077C44.5426 52.992 44.2313 52.1571 44.1906 51.2029H47.8212C47.9084 51.8313 48.2372 52.3113 48.8073 52.6429C49.3775 52.9746 50.1746 53.1404 51.1986 53.1404C52.1703 53.1404 52.915 53.0095 53.4328 52.7477C53.9506 52.48 54.2095 52.0873 54.2095 51.5695C54.2095 51.1157 53.9826 50.784 53.5288 50.5746C53.0808 50.3651 52.3506 50.2604 51.3383 50.2604H48.9383V47.8778H51.2859C52.1528 47.8778 52.8044 47.7557 53.2408 47.5113C53.683 47.2669 53.9041 46.9295 53.9041 46.4989C53.9041 46.0335 53.6655 45.6757 53.1884 45.4255C52.7172 45.1695 52.0568 45.0415 51.2073 45.0415C50.2706 45.0415 49.5346 45.2015 48.9993 45.5215C48.4641 45.8415 48.1499 46.2982 48.0568 46.8917H44.4612C44.5193 46.0248 44.8248 45.2422 45.3775 44.544C45.9303 43.84 46.7186 43.2844 47.7426 42.8771C48.7666 42.464 49.9768 42.2575 51.3732 42.2575C52.6066 42.2575 53.6946 42.4117 54.6372 42.72C55.5797 43.0284 56.307 43.4618 56.819 44.0204C57.3368 44.5789 57.5957 45.2218 57.5957 45.9491C57.5957 46.6473 57.363 47.2611 56.8975 47.7906C56.4379 48.32 55.7368 48.7011 54.7943 48.9338Z" fill="white"/>
<path d="M63.6726 50.4088L63.3061 52.704H71.597V55.6364H59.4224L60.4173 49.0909L59.4224 42.5455H71.5097V45.4778H63.3061L63.6726 47.7731H71.0035V50.4088H63.6726Z" fill="white"/>
<path d="M81.0215 42.5455C82.1095 42.5455 83.052 42.7317 83.8491 43.104C84.6462 43.4764 85.2571 44.0029 85.6818 44.6837C86.1066 45.3644 86.3189 46.1557 86.3189 47.0575C86.3189 47.9593 86.1066 48.7506 85.6818 49.4313C85.2571 50.112 84.6462 50.6386 83.8491 51.0109C83.052 51.3833 82.1095 51.5695 81.0215 51.5695H77.2949V55.6364H73.6731V42.5455H81.0215ZM80.812 48.672C81.3938 48.672 81.8477 48.5295 82.1735 48.2444C82.4993 47.9593 82.6622 47.5637 82.6622 47.0575C82.6622 46.5513 82.4993 46.1557 82.1735 45.8706C81.8477 45.5855 81.3938 45.4429 80.812 45.4429H77.2949V48.672H80.812Z" fill="white"/>
<path d="M98.6597 48.7418C99.5964 48.9629 100.3 49.3528 100.772 49.9113C101.243 50.464 101.479 51.1448 101.479 51.9535C101.479 52.6749 101.313 53.312 100.981 53.8648C100.65 54.4175 100.155 54.8509 99.4975 55.1651C98.8459 55.4793 98.0488 55.6364 97.1063 55.6364H87.4452L88.4575 48.9164L87.4452 42.5455H96.7659C97.5688 42.5455 98.2583 42.6735 98.8343 42.9295C99.4103 43.1855 99.8495 43.552 100.152 44.0291C100.455 44.5062 100.606 45.0735 100.606 45.7309C100.606 46.3709 100.446 46.9557 100.126 47.4851C99.8117 48.0146 99.323 48.4335 98.6597 48.7418ZM96.9317 46.2895C96.9317 45.9288 96.8037 45.6378 96.5477 45.4168C96.2975 45.1898 95.9484 45.0764 95.5004 45.0764H91.2939L91.7215 47.6771H95.4306C95.8728 47.6771 96.2335 47.552 96.5128 47.3018C96.7921 47.0458 96.9317 46.7084 96.9317 46.2895ZM96.1462 53.1055C96.6641 53.1055 97.0684 52.9775 97.3593 52.7215C97.6561 52.4655 97.8044 52.1106 97.8044 51.6568C97.8044 51.1971 97.6415 50.8335 97.3157 50.5658C96.9899 50.2924 96.5244 50.1557 95.9193 50.1557H91.7303L91.2764 53.1055H96.1462Z" fill="white"/>
</svg>
